# xmcd CD database file
#
# Track frame offsets:
#	150
#	15623
#	33474
#	54176
#	80237
#	104954
#	120802
#	131304
#	161980
#	176681
#	188983
#	207385
#	223120
#	247510
#	267579
#
# Disc length: 4015 seconds
#
# Revision: 0
# Processed by: cddbd v1.5.2PL0 Copyright (c) Steve Scherf et al.
# Submitted via: CDex 1.70beta2
#
DISCID=d60fad0f
DTITLE=Jean Shy - Amazing Grace
DYEAR=1999
DGENRE=Jazz
TTITLE0=Search Me Lord
TTITLE1=You Got To Move 
TTITLE2=I Bow On My Knees
TTITLE3=Just A Closer Walk With Thee
TTITLE4=Elijah Rock 
TTITLE5=He's my light
TTITLE6=When The Saints Go Marchin' In
TTITLE7=How great Thou art
TTITLE8=We Shall Overcome  
TTITLE9=Go Tell It On The Mountain
TTITLE10=Somebody Bigger Than You and  I
TTITLE11=Amen
TTITLE12=Silent night
TTITLE13=The Battle Hymn Of The Republic
TTITLE14=Amazing Grace
EXTD=YEAR: 1999
EXTT0=
EXTT1=
EXTT2=
EXTT3=
EXTT4=
EXTT5=
EXTT6=
EXTT7=
EXTT8=
EXTT9=
EXTT10=
EXTT11=
EXTT12=
EXTT13=
EXTT14=
PLAYORDER=
